<svg width="654" height="198" viewBox="0 0 654 198" fill="none" xmlns="http://www.w3.org/2000/svg">
<path d="M71.5313 197.121C58.2147 197.121 46.2122 194.142 35.5239 188.185C24.8356 182.052 16.3375 173.554 10.0296 162.69C3.89695 151.827 0.830627 139.036 0.830627 124.318C0.830627 109.424 3.89695 96.5454 10.0296 85.6819C16.3375 74.8183 24.8356 66.4078 35.5239 60.4504C46.2122 54.493 58.2147 51.5143 71.5313 51.5143C83.4462 51.5143 93.8717 54.1425 102.808 59.3991C111.744 64.6556 118.665 72.6281 123.571 83.3164C128.477 94.0048 130.93 107.672 130.93 124.318C130.93 140.788 128.565 154.455 123.834 165.319C119.103 176.007 112.27 183.979 103.333 189.236C94.5726 194.493 83.9718 197.121 71.5313 197.121ZM78.6277 163.479C85.286 163.479 91.331 161.902 96.7628 158.748C102.195 155.594 106.487 151.126 109.641 145.344C112.97 139.386 114.635 132.378 114.635 124.318C114.635 116.082 112.97 109.074 109.641 103.291C106.487 97.5091 102.195 93.0411 96.7628 89.8871C91.331 86.7332 85.286 85.1562 78.6277 85.1562C71.7941 85.1562 65.6615 86.7332 60.2297 89.8871C54.7979 93.0411 50.4175 97.5091 47.0883 103.291C43.9344 109.074 42.3574 116.082 42.3574 124.318C42.3574 132.378 43.9344 139.386 47.0883 145.344C50.4175 151.126 54.7979 155.594 60.2297 158.748C65.6615 161.902 71.7941 163.479 78.6277 163.479ZM115.686 195.018V166.107L116.475 124.055L113.847 82.2651V0H154.848V195.018H115.686Z" fill="black"/>
<path d="M260.342 197.121C244.222 197.121 230.03 193.967 217.764 187.659C205.674 181.351 196.3 172.765 189.642 161.902C182.983 150.863 179.654 138.335 179.654 124.318C179.654 110.125 182.896 97.5967 189.379 86.7332C196.037 75.6944 205.061 67.1087 216.45 60.9761C227.839 54.6682 240.718 51.5143 255.086 51.5143C268.928 51.5143 281.369 54.493 292.407 60.4504C303.621 66.2326 312.47 74.6431 318.953 85.6819C325.436 96.5454 328.678 109.599 328.678 124.843C328.678 126.42 328.59 128.26 328.415 130.363C328.24 132.29 328.064 134.13 327.889 135.882H213.033V111.965H306.337L290.568 119.061C290.568 111.702 289.078 105.306 286.099 99.8746C283.121 94.4428 279.003 90.2376 273.747 87.2588C268.49 84.1049 262.357 82.5279 255.349 82.5279C248.34 82.5279 242.12 84.1049 236.688 87.2588C231.431 90.2376 227.314 94.5304 224.335 100.137C221.356 105.569 219.867 112.052 219.867 119.587V125.895C219.867 133.604 221.531 140.438 224.861 146.395C228.365 152.177 233.183 156.645 239.316 159.799C245.624 162.778 252.983 164.267 261.394 164.267C268.928 164.267 275.499 163.128 281.106 160.851C286.888 158.573 292.145 155.156 296.875 150.6L318.69 174.255C312.207 181.614 304.059 187.309 294.247 191.339C284.435 195.193 273.133 197.121 260.342 197.121Z" fill="black"/>
<path d="M389.153 195.018L329.754 53.6169H372.069L421.48 175.306H400.454L451.706 53.6169H491.13L431.468 195.018H389.153Z" fill="black"/>
<path d="M499.13 195.018L562.471 111.965L561.683 134.568L500.97 53.6169H546.964L585.337 106.445L567.991 106.971L607.678 53.6169H651.307L590.331 133.779V111.702L653.41 195.018H606.889L566.677 138.773L583.76 141.139L543.811 195.018H499.13Z" fill="black"/>
</svg>
